<svg version="1" xmlns="http://www.w3.org/2000/svg" width="682.667" height="682.667" viewBox="0 0 512.000000 512.000000"><path d="M41.2 2.6c-6.5 3.2-11.8 9.3-13.7 15.8-2.3 7.5-2.3 467.7 0 475.2 1.9 6.5 7.2 12.6 13.7 15.8l5.2 2.6h419.2l5.2-2.6c6.5-3.2 11.8-9.3 13.7-15.8 2.3-7.5 2.3-467.7 0-475.2-1.9-6.5-7.2-12.6-13.7-15.8L465.6 0H46.4l-5.2 2.6zM88 64.4c0 9.6 10 21.2 19.9 23.2 3.8.8 4.3 1.7 6.6 11.4 2.3 9.5 4.5 13.9 9 17.8 7.8 6.9 6.4 6.7 45.5 7l35.5.3 3 2.9c6.1 5.9 6.8 6 48.7 6 35.1 0 38.6-.2 42.3-1.9 2.2-1 5.1-3 6.4-4.5l2.4-2.6h34.1c36.7-.1 38.4-.3 45.1-5.5 5.4-4.1 8.4-9.4 11-19.3 1.2-4.9 2.5-9.4 2.8-9.9.4-.6 2.1-1.3 3.9-1.7C414 85.6 424 74 424 64.4c0-2.3.2-2.4 9-2.4 10.2 0 14.5 1.5 16 5.6.6 1.6 1 77.2 1 201.5 0 214.8.3 203.1-4.9 205.9-2.7 1.4-375.5 1.4-378.2 0-5.2-2.8-4.9 9-4.9-206.2.1-163.5.3-199.7 1.4-201.7 2.2-4 5.4-5 15.4-5.1 9 0 9.2 0 9.2 2.4zm282.9 2.7c1.4 6.3 2.4 8.1 7.2 13.3l3.8 4.2-2 8c-3.4 13.3-.6 12.4-39.8 12.4-32.4 0-33.7-.1-34.9-2-.6-1.1-3-2.9-5.2-4-3.7-1.9-5.7-2-44-2s-40.3.1-44 2c-2.2 1.1-4.6 2.9-5.2 4-1.2 1.9-2.5 2-34.9 2-39.2 0-36.4.9-39.8-12.4l-2-8 3.8-4.2c4.8-5.2 5.8-7 7.2-13.3l1.1-5.1h227.6l1.1 5.1z"/><path d="M121.3 158.7c-2.8.5-7.3 5.8-7.3 8.4 0 2.9 2.7 7.7 4.9 8.9 1.1.5 4.5 1 7.5 1h5.6v27.9c0 26.4.1 28 2 30.4 2.4 3.1 7.2 4.3 10.8 2.8 5.5-2.3 5.7-3.3 6-33.4l.3-27.7h5.5c4.8 0 6-.4 8.5-2.9 3.1-3.1 3.8-7.5 1.8-11.3-2.1-4-6.6-4.8-25.6-4.7-9.8.1-18.8.4-20 .6zM192.9 159c-9.8 1.6-18.3 8.3-22.7 17.9-2.3 5-2.7 7.2-3 19.2-.3 10.7-.1 14.9 1.3 19.5 4.2 14.5 15.4 22.9 30.5 22.9 9.2-.1 16.8-3.3 22.5-9.7 6.7-7.4 7.9-11.4 8.3-28 .3-11.3 0-15.9-1.2-20.1-4.3-14.8-19.9-24.2-35.7-21.7zm11.1 19.5c6.2 3.2 7 5.4 7 20.1V212l-3.3 3.6c-5.8 6.4-15.2 5.5-19.7-1.9-1.7-2.7-2-5.1-2-15.2 0-10.3.3-12.5 2-15.3 3.4-5.5 10.4-7.6 16-4.7zM278.5 158.9c-4.5 1.1-7 2.7-9.9 6.1-4.2 5.1-4.8 9.2-4.4 35.8.3 23.7.4 24.9 2.6 28.7 3.8 6.7 8 8.8 18.1 9.3 16.4.8 28.4-4.5 36-15.9 5.1-7.7 6.5-13.9 5.9-27.5-.4-9.2-.9-11.8-3.2-16.6-3.5-7.3-11.7-15-19.2-17.7-6.1-2.3-20.8-3.6-25.9-2.2zm22.2 21.3c5.7 3.7 7.3 7.8 7.3 18.3 0 10.2-1.5 14.3-6.8 18.3-2.9 2.2-4.8 2.7-10.9 3l-7.3.4v-43.4l6.9.4c5.3.3 7.7.9 10.8 3zM360.9 159c-9.7 1.6-18.3 8-22.6 16.8-2.7 5.6-2.8 6.1-2.8 22.7 0 15.3.2 17.5 2.1 21.6 3.1 6.7 8.7 12.4 15.2 15.6 4.8 2.4 6.9 2.8 13.7 2.7 13 0 22-5.6 27.7-17.2l3.3-6.7v-16c0-15.2-.1-16.3-2.6-21.6-6.2-13.1-19.6-20.2-34-17.9zm10.6 19.4c6.1 2.6 7.5 6.3 7.5 20.1 0 10.1-.3 12.5-2 15.2-4.5 7.4-13.9 8.3-19.7 1.9L354 212v-13.3c0-14.6.5-16.2 6.4-19.8 3.7-2.3 6.5-2.4 11.1-.5zM108.6 258.2c-3.8 3.5-3.9 9.6-.1 13.3 2.4 2.5 2.5 2.5 23 2.5 25.6 0 27.5-.7 27.5-9.6 0-2.4-.8-4.3-2.5-5.9-2.4-2.5-2.4-2.5-23.9-2.5-20.9 0-21.6.1-24 2.2zM179.9 257.3c-4.7 3.6-5.1 9.7-1 13.8l2.9 2.9h219.3l2.4-2.5c3.8-3.7 3.7-9.8-.1-13.3l-2.5-2.2H291.2c-84.7.1-110.1.3-111.3 1.3zM112.9 308.7c-6.9 1.1-9.6 10.7-4.4 15.8 2.4 2.5 2.5 2.5 23 2.5 20.9 0 23.5-.4 26.2-3.9 1.7-2.2 1.6-8.2-.2-10.8-.9-1.2-3.2-2.7-5.3-3.3-3.5-.9-33.6-1.2-39.3-.3zM183.5 308.8c-7.7 2.6-9.9 9.9-4.6 15.3l2.9 2.9h219.3l2.4-2.5c3.8-3.7 3.7-9.6-.1-13.5l-2.4-2.5-107.8-.2c-59.2-.1-108.6.2-109.7.5zM112.4 361.7c-7.7 1.5-9 14.6-1.8 17.3 3.7 1.5 41 1.3 43.7-.2 3.3-1.7 4.6-3.9 4.7-7.6.1-8.8-3.7-10.2-26.7-10.1-9.8.1-18.8.4-19.9.6zM182.3 362.1c-6.4 1.9-8.2 10.1-3.4 15l2.9 2.9h108.6c66.2 0 109.4-.4 111-1 5.3-2 6.6-10.5 2.2-14.9l-2.6-2.6-107.8-.2c-65.1-.1-109 .2-110.9.8zM112.4 414.7c-7.4 1.4-9.1 13.3-2.4 16.8 3.7 1.9 40.8 2.2 44.3.3 3.3-1.7 4.6-3.9 4.7-7.6.1-8.8-3.7-10.2-26.7-10.1-9.8.1-18.8.4-19.9.6zM182.3 415.1c-6.6 1.9-8.1 11.5-2.6 15.9 2.6 2 3.3 2 111 2 94 0 108.8-.2 111.3-1.5 5-2.6 5.8-10.1 1.5-14.4l-2.5-2.6-107.8-.2c-65.1-.1-109 .2-110.9.8z"/></svg>